<?xml version="1.0" encoding="utf-8"?>
<!-- Generator: Adobe Illustrator 27.2.0, SVG Export Plug-In . SVG Version: 6.00 Build 0)  -->
<svg version="1.1" id="Layer_1" xmlns="http://www.w3.org/2000/svg" xmlns:xlink="http://www.w3.org/1999/xlink" x="0px" y="0px"
	 viewBox="0 0 841.89 595.28" style="enable-background:new 0 0 841.89 595.28;" xml:space="preserve">
<linearGradient id="SVGID_1_" gradientUnits="userSpaceOnUse" x1="206.465" y1="209.2297" x2="206.465" y2="322.97">
	<stop  offset="0.162" style="stop-color:#9F9F9E"/>
	<stop  offset="0.3155" style="stop-color:#878682"/>
	<stop  offset="0.6456" style="stop-color:#48473A"/>
	<stop  offset="0.7832" style="stop-color:#2D2B1A"/>
</linearGradient>
<path style="fill:url(#SVGID_1_);stroke:#000000;stroke-width:5;stroke-miterlimit:10;" d="M205.63,322.97L179.1,218.41
	c1.18-1.53,5.45-6.7,13.16-8.54c7.34-1.76,13.22,0.58,15.04,1.39c8.84,34.85,17.68,69.71,26.53,104.56L205.63,322.97z"/>
<linearGradient id="SVGID_00000141451516940015511000000001587828556204779931_" gradientUnits="userSpaceOnUse" x1="426.1099" y1="149.6367" x2="426.1099" y2="168.319">
	<stop  offset="0.4058" style="stop-color:#87834D"/>
	<stop  offset="0.5185" style="stop-color:#827E4A"/>
	<stop  offset="0.6518" style="stop-color:#747042"/>
	<stop  offset="0.7955" style="stop-color:#5C5935"/>
	<stop  offset="0.9456" style="stop-color:#3B3922"/>
	<stop  offset="1" style="stop-color:#2D2B1A"/>
</linearGradient>
<path style="fill:url(#SVGID_00000141451516940015511000000001587828556204779931_);stroke:#000000;stroke-width:5;stroke-miterlimit:10;" d="
	M372.8401,168.319c-1.23-21.65,106.55-27.97,106.55,0"/>
<linearGradient id="SVGID_00000177453643234682476780000014057824608316256930_" gradientUnits="userSpaceOnUse" x1="679.8076" y1="214.829" x2="679.8076" y2="240.819">
	<stop  offset="0.1923" style="stop-color:#87834D"/>
	<stop  offset="1" style="stop-color:#2D2B1A"/>
</linearGradient>
<path style="fill:url(#SVGID_00000177453643234682476780000014057824608316256930_);stroke:#000000;stroke-width:5;stroke-miterlimit:10;" d="
	M567.8501,214.829h219.96l1.48,2.85c3.3,6.36,3.3,13.93,0,20.29l-1.48,2.85h-219.96V214.829z"/>
<linearGradient id="SVGID_00000081634752326210867100000009308086209691008152_" gradientUnits="userSpaceOnUse" x1="573.1241" y1="205.7874" x2="542.8604" y2="258.2056">
	<stop  offset="0.1984" style="stop-color:#87834D"/>
	<stop  offset="1" style="stop-color:#2D2B1A"/>
</linearGradient>
<path style="fill:url(#SVGID_00000081634752326210867100000009308086209691008152_);stroke:#000000;stroke-width:5;stroke-miterlimit:10;" d="
	M549.8801,199.409c39.02-4.75,50,60.19-6.65,59.01"/>
<linearGradient id="SVGID_00000098185998402615468140000003829032277512641718_" gradientUnits="userSpaceOnUse" x1="299.2432" y1="270.2353" x2="356.8958" y2="485.3977">
	<stop  offset="0.0016" style="stop-color:#EAE275"/>
	<stop  offset="0.18" style="stop-color:#CEC767"/>
	<stop  offset="0.5666" style="stop-color:#858044"/>
	<stop  offset="1" style="stop-color:#2D2B1A"/>
</linearGradient>
<path style="fill:url(#SVGID_00000098185998402615468140000003829032277512641718_);stroke:#000000;stroke-width:5;stroke-miterlimit:10;" d="
	M163.55,312.53c41.16-41.19,405.85-46.13,426.12-15.42c23.94,36.27,9.81,87.31,0,117.75c-12.54,38.9-549.5,92.65-522.35,54.67
	C107.42,413.47,163.55,312.53,163.55,312.53z"/>
<path style="fill:#333330;stroke:#000000;stroke-width:5;stroke-miterlimit:10;" d="M73.78,434.49
	c25.92-20.57,458.41-85.51,542.52-70.09c50.32,9.23,72.9,140.19,1.4,146.74c0,0-524.9208,13.14-550.5008-17.15
	C39.3392,460.99,73.78,434.49,73.78,434.49z"/>
<linearGradient id="SVGID_00000147915487070830697120000018072134353321467296_" gradientUnits="userSpaceOnUse" x1="407.1538" y1="162.0666" x2="407.1538" y2="281.059">
	<stop  offset="0.0016" style="stop-color:#EAE275"/>
	<stop  offset="0.2087" style="stop-color:#E7DF74"/>
	<stop  offset="0.3573" style="stop-color:#DED66F"/>
	<stop  offset="0.4877" style="stop-color:#CEC768"/>
	<stop  offset="0.6076" style="stop-color:#B8B15D"/>
	<stop  offset="0.7203" style="stop-color:#9B964F"/>
	<stop  offset="0.8276" style="stop-color:#78733E"/>
	<stop  offset="0.9289" style="stop-color:#4F4C2A"/>
	<stop  offset="1" style="stop-color:#2D2B1A"/>
</linearGradient>
<path style="fill:url(#SVGID_00000147915487070830697120000018072134353321467296_);stroke:#000000;stroke-width:5;stroke-miterlimit:10;" d="
	M288.8301,281.059c-42.15,0-47.2-81.35-28.11-95.33c32.22-23.6,235.5-36.79,281.54-4.21c32.06,22.69,36.67,98.13-39.03,95.33
	S288.8301,281.059,288.8301,281.059z"/>
<line style="fill:none;stroke:#000000;stroke-width:5;stroke-miterlimit:10;" x1="304.0101" y1="171.919" x2="304.0101" y2="129.319"/>
<line style="fill:none;stroke:#000000;stroke-width:5;stroke-miterlimit:10;" x1="326.5601" y1="168.319" x2="326.5601" y2="99.879"/>
<path style="fill:#4E4C3B;stroke:#000000;stroke-width:5;stroke-miterlimit:10;" d="M82.8973,438.5753
	c24.6029-18.3902,425.9311-69.7634,510.6182-64.7579c47.7631,8.2519,69.602,99.6341,4.8773,123.1826
	c0,0-485.9533,12.6378-521.7418-5.23C50.2066,462.267,82.8973,438.5753,82.8973,438.5753z"/>
<g>
	
		<rect x="568.05" y="377.21" style="fill:#A3A296;stroke:#000000;stroke-width:3;stroke-miterlimit:10;" width="20.3" height="119.79"/>
	
		<rect x="518.3072" y="426.9505" style="fill:#A3A296;stroke:#000000;stroke-width:3;stroke-miterlimit:10;" width="119.79" height="20.3"/>
	
		<rect x="518.3047" y="426.9455" transform="matrix(0.7071 -0.7071 0.7071 0.7071 -139.7225 536.8708)" style="fill:#A3A296;stroke:#000000;stroke-width:3;stroke-miterlimit:9.9999;" width="119.7889" height="20.2998"/>
	
		<rect x="568.0619" y="377.2054" transform="matrix(0.7071 -0.7071 0.7071 0.7071 -139.7219 536.881)" style="fill:#A3A296;stroke:#000000;stroke-width:3;stroke-miterlimit:9.9999;" width="20.2998" height="119.7889"/>
	<circle style="fill:#A3A296;stroke:#000000;stroke-width:3;stroke-miterlimit:10;" cx="578.19" cy="437.12" r="45.06"/>
</g>
<g>
	
		<rect x="90.28" y="438.4" style="fill:#A3A296;stroke:#000000;stroke-width:3;stroke-miterlimit:10;" width="9.42" height="55.59"/>
	
		<rect x="67.1993" y="461.4807" style="fill:#A3A296;stroke:#000000;stroke-width:3;stroke-miterlimit:10;" width="55.59" height="9.42"/>
	
		<rect x="67.1991" y="461.4781" transform="matrix(0.7071 -0.7071 0.7071 0.7071 -301.8217 203.7141)" style="fill:#A3A296;stroke:#000000;stroke-width:3;stroke-miterlimit:9.9999;" width="55.5895" height="9.4199"/>
	
		<rect x="90.2913" y="438.3998" transform="matrix(0.7071 -0.7071 0.7071 0.7071 -301.8241 203.7212)" style="fill:#A3A296;stroke:#000000;stroke-width:3;stroke-miterlimit:9.9999;" width="9.4199" height="55.5895"/>
	<circle style="fill:#A3A296;stroke:#000000;stroke-width:3;stroke-miterlimit:10;" cx="94.99" cy="466.2" r="20.91"/>
</g>
<g>
	
		<rect x="439.43" y="384.62" style="fill:#A3A296;stroke:#000000;stroke-width:3;stroke-miterlimit:10;" width="19.36" height="114.2"/>
	
		<rect x="392.009" y="432.0467" style="fill:#A3A296;stroke:#000000;stroke-width:3;stroke-miterlimit:10;" width="114.2" height="19.36"/>
	
		<rect x="392.0114" y="432.0376" transform="matrix(0.7071 -0.7071 0.7071 0.7071 -180.7999 446.9454)" style="fill:#A3A296;stroke:#000000;stroke-width:3;stroke-miterlimit:9.9999;" width="114.1989" height="19.3598"/>
	
		<rect x="439.4316" y="384.6281" transform="matrix(0.7071 -0.7071 0.7071 0.7071 -180.8069 446.9488)" style="fill:#A3A296;stroke:#000000;stroke-width:3;stroke-miterlimit:9.9999;" width="19.3598" height="114.1989"/>
	<circle style="fill:#A3A296;stroke:#000000;stroke-width:3;stroke-miterlimit:10;" cx="449.09" cy="441.74" r="42.96"/>
</g>
<g>
	
		<rect x="317.6043" y="397.2531" style="fill:#A3A296;stroke:#000000;stroke-width:3;stroke-miterlimit:10;" width="16.998" height="100.2969"/>
	
		<rect x="275.9584" y="438.8959" style="fill:#A3A296;stroke:#000000;stroke-width:3;stroke-miterlimit:10;" width="100.2969" height="16.998"/>
	
		<rect x="275.9566" y="438.893" transform="matrix(0.7071 -0.7071 0.7071 0.7071 -220.84 361.6288)" style="fill:#A3A296;stroke:#000000;stroke-width:3;stroke-miterlimit:9.9999;" width="100.296" height="16.9979"/>
	
		<rect x="317.6175" y="397.2482" transform="matrix(0.7071 -0.7071 0.7071 0.7071 -220.8396 361.6385)" style="fill:#A3A296;stroke:#000000;stroke-width:3;stroke-miterlimit:9.9999;" width="16.9979" height="100.296"/>
	<circle style="fill:#A3A296;stroke:#000000;stroke-width:3;stroke-miterlimit:10;" cx="326.0928" cy="447.4173" r="37.7256"/>
</g>
<g>
	
		<rect x="197.443" y="414.4409" style="fill:#A3A296;stroke:#000000;stroke-width:3;stroke-miterlimit:10;" width="14.3034" height="84.3891"/>
	
		<rect x="162.3969" y="449.4758" style="fill:#A3A296;stroke:#000000;stroke-width:3;stroke-miterlimit:10;" width="84.3891" height="14.3034"/>
	
		<rect x="162.3991" y="449.4758" transform="matrix(0.7071 -0.7071 0.7071 0.7071 -262.9604 278.4124)" style="fill:#A3A296;stroke:#000000;stroke-width:3;stroke-miterlimit:9.9999;" width="84.3883" height="14.3033"/>
	
		<rect x="197.4478" y="414.432" transform="matrix(0.7071 -0.7071 0.7071 0.7071 -262.9577 278.4164)" style="fill:#A3A296;stroke:#000000;stroke-width:3;stroke-miterlimit:9.9999;" width="14.3033" height="84.3883"/>
	<circle style="fill:#A3A296;stroke:#000000;stroke-width:3;stroke-miterlimit:10;" cx="204.5895" cy="456.6407" r="31.7413"/>
</g>
</svg>
