<?xml version="1.0" encoding="utf-8"?>
<!-- Generator: Adobe Illustrator 27.2.0, SVG Export Plug-In . SVG Version: 6.00 Build 0)  -->
<svg version="1.1" id="Layer_1" xmlns="http://www.w3.org/2000/svg" xmlns:xlink="http://www.w3.org/1999/xlink" x="0px" y="0px"
	 viewBox="0 0 841.89 595.28" style="enable-background:new 0 0 841.89 595.28;" xml:space="preserve">
<linearGradient id="SVGID_1_" gradientUnits="userSpaceOnUse" x1="206.465" y1="386.0459" x2="206.465" y2="272.3056" gradientTransform="matrix(-1 0 0 -1 848.0848 595.2756)">
	<stop  offset="0.162" style="stop-color:#9F9F9E"/>
	<stop  offset="0.3155" style="stop-color:#878682"/>
	<stop  offset="0.6456" style="stop-color:#48473A"/>
	<stop  offset="0.7832" style="stop-color:#2D2B1A"/>
</linearGradient>
<path style="fill:url(#SVGID_1_);stroke:#000000;stroke-width:5;stroke-miterlimit:10;" d="M614.2548,315.82
	c8.85-34.85,17.69-69.71,26.53-104.56c1.82-0.81,7.7-3.15,15.04-1.39c7.71,1.84,11.98,7.01,13.16,8.54l-26.53,104.56
	L614.2548,315.82z"/>
<linearGradient id="SVGID_00000113333540016899441020000014609863407062881672_" gradientUnits="userSpaceOnUse" x1="426.1099" y1="445.6389" x2="426.1099" y2="426.9566" gradientTransform="matrix(-1 0 0 -1 848.0848 595.2756)">
	<stop  offset="0.4058" style="stop-color:#87834D"/>
	<stop  offset="0.5185" style="stop-color:#827E4A"/>
	<stop  offset="0.6518" style="stop-color:#747042"/>
	<stop  offset="0.7955" style="stop-color:#5C5935"/>
	<stop  offset="0.9456" style="stop-color:#3B3922"/>
	<stop  offset="1" style="stop-color:#2D2B1A"/>
</linearGradient>
<path style="fill:url(#SVGID_00000113333540016899441020000014609863407062881672_);stroke:#000000;stroke-width:5;stroke-miterlimit:10;" d="
	M368.6947,168.319c0-27.97,107.78-21.65,106.55,0"/>
<linearGradient id="SVGID_00000011711067356222786040000015344916641421645213_" gradientUnits="userSpaceOnUse" x1="679.8076" y1="380.4466" x2="679.8076" y2="354.4566" gradientTransform="matrix(-1 0 0 -1 848.0848 595.2756)">
	<stop  offset="0.1923" style="stop-color:#87834D"/>
	<stop  offset="1" style="stop-color:#2D2B1A"/>
</linearGradient>
<path style="fill:url(#SVGID_00000011711067356222786040000015344916641421645213_);stroke:#000000;stroke-width:5;stroke-miterlimit:10;" d="
	M280.2346,240.819h-219.96l-1.48-2.85c-3.3-6.36-3.3-13.93,0-20.29l1.48-2.85h219.96V240.819z"/>
<linearGradient id="SVGID_00000122682177571303410280000009097920155095563706_" gradientUnits="userSpaceOnUse" x1="573.1241" y1="389.4882" x2="542.8604" y2="337.07" gradientTransform="matrix(-1 0 0 -1 848.0848 595.2756)">
	<stop  offset="0.1984" style="stop-color:#87834D"/>
	<stop  offset="1" style="stop-color:#2D2B1A"/>
</linearGradient>
<path style="fill:url(#SVGID_00000122682177571303410280000009097920155095563706_);stroke:#000000;stroke-width:5;stroke-miterlimit:10;" d="
	M304.8546,258.419c-56.65,1.18-45.67-63.76-6.65-59.01"/>
<linearGradient id="SVGID_00000012455170877525270920000013129168981447654574_" gradientUnits="userSpaceOnUse" x1="299.2432" y1="325.0403" x2="356.8958" y2="109.8779" gradientTransform="matrix(-1 0 0 -1 848.0848 595.2756)">
	<stop  offset="0.0016" style="stop-color:#EAE275"/>
	<stop  offset="0.18" style="stop-color:#CEC767"/>
	<stop  offset="0.5666" style="stop-color:#858044"/>
	<stop  offset="1" style="stop-color:#2D2B1A"/>
</linearGradient>
<path style="fill:url(#SVGID_00000012455170877525270920000013129168981447654574_);stroke:#000000;stroke-width:5;stroke-miterlimit:10;" d="
	M780.7648,469.53c27.15,37.98-509.81-15.77-522.35-54.67c-9.81-30.44-23.94-81.48,0-117.75c20.27-30.71,384.96-25.77,426.12,15.42
	C684.5347,312.53,740.6647,413.47,780.7648,469.53z"/>
<path style="fill:#333330;stroke:#000000;stroke-width:5;stroke-miterlimit:10;" d="M780.8855,493.99
	c-25.58,30.29-550.5008,17.15-550.5008,17.15c-71.5-6.55-48.92-137.51,1.4-146.74c84.11-15.42,516.6,49.52,542.52,70.09
	C774.3047,434.49,808.7455,460.99,780.8855,493.99z"/>
<linearGradient id="SVGID_00000010307267146483681560000014203903170992737924_" gradientUnits="userSpaceOnUse" x1="407.1538" y1="433.209" x2="407.1538" y2="314.2166" gradientTransform="matrix(-1 0 0 -1 848.0848 595.2756)">
	<stop  offset="0.0016" style="stop-color:#EAE275"/>
	<stop  offset="0.2087" style="stop-color:#E7DF74"/>
	<stop  offset="0.3573" style="stop-color:#DED66F"/>
	<stop  offset="0.4877" style="stop-color:#CEC768"/>
	<stop  offset="0.6076" style="stop-color:#B8B15D"/>
	<stop  offset="0.7203" style="stop-color:#9B964F"/>
	<stop  offset="0.8276" style="stop-color:#78733E"/>
	<stop  offset="0.9289" style="stop-color:#4F4C2A"/>
	<stop  offset="1" style="stop-color:#2D2B1A"/>
</linearGradient>
<path style="fill:url(#SVGID_00000010307267146483681560000014203903170992737924_);stroke:#000000;stroke-width:5;stroke-miterlimit:10;" d="
	M344.8546,276.849c-75.7,2.8-71.09-72.64-39.03-95.33c46.04-32.58,249.32-19.39,281.5401,4.21c19.09,13.98,14.04,95.33-28.11,95.33
	C559.2546,281.059,420.5546,274.049,344.8546,276.849z"/>
<line style="fill:none;stroke:#000000;stroke-width:5;stroke-miterlimit:10;" x1="544.0746" y1="129.319" x2="544.0746" y2="171.919"/>
<line style="fill:none;stroke:#000000;stroke-width:5;stroke-miterlimit:10;" x1="521.5247" y1="99.879" x2="521.5247" y2="168.319"/>
<path style="fill:#4E4C3B;stroke:#000000;stroke-width:5;stroke-miterlimit:10;" d="M771.4338,491.77
	C735.6453,509.6378,249.6919,497,249.6919,497c-64.7247-23.5485-42.8858-114.9307,4.8773-123.1826
	c84.6871-5.0055,486.0153,46.3677,510.6182,64.7579C765.1874,438.5753,797.8782,462.267,771.4338,491.77z"/>
<g>
	
		<rect x="259.774" y="377.2171" transform="matrix(0.9022 -0.4312 0.4312 0.9022 -162.1049 159.1262)" style="fill:#A3A296;stroke:#000000;stroke-width:2.9998;stroke-miterlimit:9.9995;" width="20.299" height="119.7839"/>
	
		<rect x="210.0277" y="426.9565" transform="matrix(0.9022 -0.4312 0.4312 0.9022 -162.1039 159.1242)" style="fill:#A3A296;stroke:#000000;stroke-width:2.9998;stroke-miterlimit:9.9995;" width="119.7839" height="20.299"/>
	
		<rect x="259.7579" y="377.2247" transform="matrix(0.333 -0.9429 0.9429 0.333 -232.1425 546.056)" style="fill:#A3A296;stroke:#000000;stroke-width:2.9999;stroke-miterlimit:9.9996;" width="20.2993" height="119.7859"/>
	
		<rect x="210.0051" y="426.9773" transform="matrix(0.333 -0.9429 0.9429 0.333 -232.1577 546.0533)" style="fill:#A3A296;stroke:#000000;stroke-width:2.9999;stroke-miterlimit:9.9996;" width="119.7859" height="20.2993"/>
	<circle style="fill:#A3A296;stroke:#000000;stroke-width:3;stroke-miterlimit:10;" cx="269.8999" cy="437.1133" r="45.06"/>
</g>
<g>
	
		<rect x="748.3939" y="438.3971" transform="matrix(0.9221 -0.3869 0.3869 0.9221 -121.7202 327.6894)" style="fill:#A3A296;stroke:#000000;stroke-width:2.9999;stroke-miterlimit:9.9998;" width="9.4198" height="55.5889"/>
	
		<rect x="725.3037" y="461.4793" transform="matrix(0.9221 -0.3869 0.3869 0.9221 -121.7197 327.687)" style="fill:#A3A296;stroke:#000000;stroke-width:2.9999;stroke-miterlimit:9.9998;" width="55.5889" height="9.4198"/>
	
		<rect x="748.3575" y="438.3792" transform="matrix(0.3785 -0.9256 0.9256 0.3785 36.54 986.7669)" style="fill:#A3A296;stroke:#000000;stroke-width:3;stroke-miterlimit:9.9999;" width="9.4199" height="55.5894"/>
	
		<rect x="725.2684" y="461.4727" transform="matrix(0.3785 -0.9256 0.9256 0.3785 36.5292 986.7684)" style="fill:#A3A296;stroke:#000000;stroke-width:3;stroke-miterlimit:9.9999;" width="55.5894" height="9.4199"/>
	
		<ellipse style="fill:#A3A296;stroke:#000000;stroke-width:2.9999;stroke-miterlimit:9.9998;" cx="753.1057" cy="466.1961" rx="20.9096" ry="20.9096"/>
</g>
<g>
	
		<rect x="389.3165" y="384.6134" transform="matrix(0.9174 -0.3979 0.3979 0.9174 -142.8144 195.2395)" style="fill:#A3A296;stroke:#000000;stroke-width:2.9999;stroke-miterlimit:9.9997;" width="19.3595" height="114.197"/>
	
		<rect x="341.9013" y="432.038" transform="matrix(0.9174 -0.3979 0.3979 0.9174 -142.8164 195.2414)" style="fill:#A3A296;stroke:#000000;stroke-width:2.9999;stroke-miterlimit:9.9997;" width="114.197" height="19.3595"/>
	
		<rect x="389.3018" y="384.6357" transform="matrix(0.3673 -0.9301 0.9301 0.3673 -158.4233 650.579)" style="fill:#A3A296;stroke:#000000;stroke-width:3;stroke-miterlimit:9.9999;" width="19.3598" height="114.1986"/>
	
		<rect x="341.8858" y="432.0646" transform="matrix(0.3673 -0.9301 0.9301 0.3673 -158.43 650.5883)" style="fill:#A3A296;stroke:#000000;stroke-width:3;stroke-miterlimit:9.9999;" width="114.1986" height="19.3598"/>
	<circle style="fill:#A3A296;stroke:#000000;stroke-width:3;stroke-miterlimit:10;" cx="399.0012" cy="441.7308" r="42.96"/>
</g>
<g>
	
		<rect x="513.4724" y="397.2304" transform="matrix(0.9289 -0.3704 0.3704 0.9289 -128.5807 225.1527)" style="fill:#A3A296;stroke:#000000;stroke-width:3.0001;stroke-miterlimit:10.0003;" width="16.9984" height="100.2995"/>
	
		<rect x="471.8162" y="438.8763" transform="matrix(0.9289 -0.3704 0.3704 0.9289 -128.5794 225.1503)" style="fill:#A3A296;stroke:#000000;stroke-width:3.0001;stroke-miterlimit:10.0003;" width="100.2995" height="16.9984"/>
	
		<rect x="513.4797" y="397.2242" transform="matrix(0.3949 -0.9187 0.9187 0.3949 -95.1642 750.2526)" style="fill:#A3A296;stroke:#000000;stroke-width:2.9999;stroke-miterlimit:9.9997;" width="16.9975" height="100.2938"/>
	
		<rect x="471.8221" y="438.8806" transform="matrix(0.3949 -0.9187 0.9187 0.3949 -95.1777 750.2488)" style="fill:#A3A296;stroke:#000000;stroke-width:2.9999;stroke-miterlimit:9.9997;" width="100.2938" height="16.9975"/>
	<circle style="fill:#A3A296;stroke:#000000;stroke-width:3;stroke-miterlimit:10;" cx="521.9968" cy="447.4109" r="37.7256"/>
</g>
<g>
	
		<rect x="636.3234" y="414.4281" transform="matrix(0.9188 -0.3948 0.3948 0.9188 -128.0016 291.127)" style="fill:#A3A296;stroke:#000000;stroke-width:3.0001;stroke-miterlimit:10.0003;" width="14.3038" height="84.3916"/>
	
		<rect x="601.2794" y="449.4634" transform="matrix(0.9188 -0.3948 0.3948 0.9188 -127.9982 291.1262)" style="fill:#A3A296;stroke:#000000;stroke-width:3.0001;stroke-miterlimit:10.0003;" width="84.3916" height="14.3038"/>
	
		<rect x="636.3397" y="414.417" transform="matrix(0.3705 -0.9288 0.9288 0.3705 -19.0416 885.1234)" style="fill:#A3A296;stroke:#000000;stroke-width:2.9999;stroke-miterlimit:9.9996;" width="14.3029" height="84.3858"/>
	
		<rect x="601.2921" y="449.4597" transform="matrix(0.3705 -0.9288 0.9288 0.3705 -19.0466 885.1184)" style="fill:#A3A296;stroke:#000000;stroke-width:2.9999;stroke-miterlimit:9.9996;" width="84.3858" height="14.3029"/>
	<circle style="fill:#A3A296;stroke:#000000;stroke-width:3;stroke-miterlimit:10;" cx="643.4971" cy="456.6394" r="31.7413"/>
</g>
</svg>
