<?xml version="1.0" encoding="utf-8"?>
<!-- Generator: Adobe Illustrator 27.2.0, SVG Export Plug-In . SVG Version: 6.00 Build 0)  -->
<svg version="1.1" id="Layer_1" xmlns="http://www.w3.org/2000/svg" xmlns:xlink="http://www.w3.org/1999/xlink" x="0px" y="0px"
	 viewBox="0 0 841.89 595.28" style="enable-background:new 0 0 841.89 595.28;" xml:space="preserve">
<linearGradient id="SVGID_1_" gradientUnits="userSpaceOnUse" x1="206.465" y1="386.0459" x2="206.465" y2="272.3056" gradientTransform="matrix(-1 0 0 -1 848.0848 595.2756)">
	<stop  offset="0.162" style="stop-color:#9F9F9E"/>
	<stop  offset="0.3155" style="stop-color:#878682"/>
	<stop  offset="0.6456" style="stop-color:#48473A"/>
	<stop  offset="0.7832" style="stop-color:#2D2B1A"/>
</linearGradient>
<path style="fill:url(#SVGID_1_);stroke:#000000;stroke-width:5;stroke-miterlimit:10;" d="M614.2548,315.82
	c8.85-34.85,17.69-69.71,26.53-104.56c1.82-0.81,7.7-3.15,15.04-1.39c7.71,1.84,11.98,7.01,13.16,8.54l-26.53,104.56
	L614.2548,315.82z"/>
<linearGradient id="SVGID_00000034800758868110414630000004928302130422855868_" gradientUnits="userSpaceOnUse" x1="426.1099" y1="445.6389" x2="426.1099" y2="426.9566" gradientTransform="matrix(-1 0 0 -1 848.0848 595.2756)">
	<stop  offset="0.4058" style="stop-color:#87834D"/>
	<stop  offset="0.5185" style="stop-color:#827E4A"/>
	<stop  offset="0.6518" style="stop-color:#747042"/>
	<stop  offset="0.7955" style="stop-color:#5C5935"/>
	<stop  offset="0.9456" style="stop-color:#3B3922"/>
	<stop  offset="1" style="stop-color:#2D2B1A"/>
</linearGradient>
<path style="fill:url(#SVGID_00000034800758868110414630000004928302130422855868_);stroke:#000000;stroke-width:5;stroke-miterlimit:10;" d="
	M368.6947,168.319c0-27.97,107.78-21.65,106.55,0"/>
<linearGradient id="SVGID_00000095319020476374110950000015095838946407553428_" gradientUnits="userSpaceOnUse" x1="679.8076" y1="380.4466" x2="679.8076" y2="354.4566" gradientTransform="matrix(-1 0 0 -1 848.0848 595.2756)">
	<stop  offset="0.1923" style="stop-color:#87834D"/>
	<stop  offset="1" style="stop-color:#2D2B1A"/>
</linearGradient>
<path style="fill:url(#SVGID_00000095319020476374110950000015095838946407553428_);stroke:#000000;stroke-width:5;stroke-miterlimit:10;" d="
	M280.2346,240.819h-219.96l-1.48-2.85c-3.3-6.36-3.3-13.93,0-20.29l1.48-2.85h219.96V240.819z"/>
<linearGradient id="SVGID_00000158750214591887744130000012176858977954532004_" gradientUnits="userSpaceOnUse" x1="573.1241" y1="389.4882" x2="542.8604" y2="337.07" gradientTransform="matrix(-1 0 0 -1 848.0848 595.2756)">
	<stop  offset="0.1984" style="stop-color:#87834D"/>
	<stop  offset="1" style="stop-color:#2D2B1A"/>
</linearGradient>
<path style="fill:url(#SVGID_00000158750214591887744130000012176858977954532004_);stroke:#000000;stroke-width:5;stroke-miterlimit:10;" d="
	M304.8546,258.419c-56.65,1.18-45.67-63.76-6.65-59.01"/>
<linearGradient id="SVGID_00000088122271525444720590000017910332180444778681_" gradientUnits="userSpaceOnUse" x1="299.2432" y1="325.0403" x2="356.8958" y2="109.8779" gradientTransform="matrix(-1 0 0 -1 848.0848 595.2756)">
	<stop  offset="0.0016" style="stop-color:#EAE275"/>
	<stop  offset="0.18" style="stop-color:#CEC767"/>
	<stop  offset="0.5666" style="stop-color:#858044"/>
	<stop  offset="1" style="stop-color:#2D2B1A"/>
</linearGradient>
<path style="fill:url(#SVGID_00000088122271525444720590000017910332180444778681_);stroke:#000000;stroke-width:5;stroke-miterlimit:10;" d="
	M780.7648,469.53c27.15,37.98-509.81-15.77-522.35-54.67c-9.81-30.44-23.94-81.48,0-117.75c20.27-30.71,384.96-25.77,426.12,15.42
	C684.5347,312.53,740.6647,413.47,780.7648,469.53z"/>
<path style="fill:#333330;stroke:#000000;stroke-width:5;stroke-miterlimit:10;" d="M780.8855,493.99
	c-25.58,30.29-550.5008,17.15-550.5008,17.15c-71.5-6.55-48.92-137.51,1.4-146.74c84.11-15.42,516.6,49.52,542.52,70.09
	C774.3047,434.49,808.7455,460.99,780.8855,493.99z"/>
<linearGradient id="SVGID_00000052802307064262261550000003518370364828997051_" gradientUnits="userSpaceOnUse" x1="407.1538" y1="433.209" x2="407.1538" y2="314.2166" gradientTransform="matrix(-1 0 0 -1 848.0848 595.2756)">
	<stop  offset="0.0016" style="stop-color:#EAE275"/>
	<stop  offset="0.2087" style="stop-color:#E7DF74"/>
	<stop  offset="0.3573" style="stop-color:#DED66F"/>
	<stop  offset="0.4877" style="stop-color:#CEC768"/>
	<stop  offset="0.6076" style="stop-color:#B8B15D"/>
	<stop  offset="0.7203" style="stop-color:#9B964F"/>
	<stop  offset="0.8276" style="stop-color:#78733E"/>
	<stop  offset="0.9289" style="stop-color:#4F4C2A"/>
	<stop  offset="1" style="stop-color:#2D2B1A"/>
</linearGradient>
<path style="fill:url(#SVGID_00000052802307064262261550000003518370364828997051_);stroke:#000000;stroke-width:5;stroke-miterlimit:10;" d="
	M344.8546,276.849c-75.7,2.8-71.09-72.64-39.03-95.33c46.04-32.58,249.32-19.39,281.5401,4.21c19.09,13.98,14.04,95.33-28.11,95.33
	C559.2546,281.059,420.5546,274.049,344.8546,276.849z"/>
<line style="fill:none;stroke:#000000;stroke-width:5;stroke-miterlimit:10;" x1="544.0746" y1="129.319" x2="544.0746" y2="171.919"/>
<line style="fill:none;stroke:#000000;stroke-width:5;stroke-miterlimit:10;" x1="521.5247" y1="99.879" x2="521.5247" y2="168.319"/>
<path style="fill:#4E4C3B;stroke:#000000;stroke-width:5;stroke-miterlimit:10;" d="M771.4338,491.77
	C735.6453,509.6378,249.6919,497,249.6919,497c-64.7247-23.5485-42.8858-114.9307,4.8773-123.1826
	c84.6871-5.0055,486.0153,46.3677,510.6182,64.7579C765.1874,438.5753,797.8782,462.267,771.4338,491.77z"/>
<g>
	
		<rect x="259.7348" y="377.21" style="fill:#A3A296;stroke:#000000;stroke-width:3;stroke-miterlimit:10;" width="20.3" height="119.79"/>
	
		<rect x="209.9876" y="426.9505" style="fill:#A3A296;stroke:#000000;stroke-width:3;stroke-miterlimit:10;" width="119.79" height="20.3"/>
	
		<rect x="259.7427" y="377.2025" transform="matrix(0.7071 -0.7071 0.7071 0.7071 -230.0241 318.8654)" style="fill:#A3A296;stroke:#000000;stroke-width:3;stroke-miterlimit:9.9998;" width="20.2996" height="119.7877"/>
	
		<rect x="209.9859" y="426.9509" transform="matrix(0.7071 -0.7071 0.7071 0.7071 -230.0309 318.8577)" style="fill:#A3A296;stroke:#000000;stroke-width:3;stroke-miterlimit:9.9998;" width="119.7878" height="20.2996"/>
	<circle style="fill:#A3A296;stroke:#000000;stroke-width:3;stroke-miterlimit:10;" cx="269.8947" cy="437.12" r="45.06"/>
</g>
<g>
	
		<rect x="748.3848" y="438.4" style="fill:#A3A296;stroke:#000000;stroke-width:3;stroke-miterlimit:10;" width="9.42" height="55.59"/>
	
		<rect x="725.2955" y="461.4807" style="fill:#A3A296;stroke:#000000;stroke-width:3;stroke-miterlimit:10;" width="55.59" height="9.42"/>
	
		<rect x="748.3848" y="438.391" transform="matrix(0.7071 -0.7071 0.7071 0.7071 -109.0666 669.061)" style="fill:#A3A296;stroke:#000000;stroke-width:3;stroke-miterlimit:9.9998;" width="9.4198" height="55.589"/>
	
		<rect x="725.2928" y="461.4821" transform="matrix(0.7071 -0.7071 0.7071 0.7071 -109.0733 669.0576)" style="fill:#A3A296;stroke:#000000;stroke-width:3;stroke-miterlimit:9.9998;" width="55.589" height="9.4198"/>
	<circle style="fill:#A3A296;stroke:#000000;stroke-width:3;stroke-miterlimit:10;" cx="753.0948" cy="466.2" r="20.91"/>
</g>
<g>
	
		<rect x="389.2948" y="384.62" style="fill:#A3A296;stroke:#000000;stroke-width:3;stroke-miterlimit:10;" width="19.36" height="114.2"/>
	
		<rect x="341.8758" y="432.0467" style="fill:#A3A296;stroke:#000000;stroke-width:3;stroke-miterlimit:10;" width="114.2" height="19.36"/>
	
		<rect x="389.3001" y="384.6187" transform="matrix(0.7071 -0.7071 0.7071 0.7071 -195.483 411.4975)" style="fill:#A3A296;stroke:#000000;stroke-width:3;stroke-miterlimit:9.9998;" width="19.3596" height="114.1978"/>
	
		<rect x="341.8805" y="432.0478" transform="matrix(0.7071 -0.7071 0.7071 0.7071 -195.4902 411.5)" style="fill:#A3A296;stroke:#000000;stroke-width:3;stroke-miterlimit:9.9998;" width="114.1978" height="19.3596"/>
	<circle style="fill:#A3A296;stroke:#000000;stroke-width:3;stroke-miterlimit:10;" cx="398.9948" cy="441.74" r="42.96"/>
</g>
<g>
	
		<rect x="513.4825" y="397.2531" style="fill:#A3A296;stroke:#000000;stroke-width:3;stroke-miterlimit:10;" width="16.998" height="100.2969"/>
	
		<rect x="471.8294" y="438.8959" style="fill:#A3A296;stroke:#000000;stroke-width:3;stroke-miterlimit:10;" width="100.2969" height="16.998"/>
	
		<rect x="513.4865" y="397.2436" transform="matrix(0.7071 -0.7071 0.7071 0.7071 -163.4673 500.1372)" style="fill:#A3A296;stroke:#000000;stroke-width:3;stroke-miterlimit:9.9998;" width="16.9977" height="100.295"/>
	
		<rect x="471.8261" y="438.8965" transform="matrix(0.7071 -0.7071 0.7071 0.7071 -163.4738 500.1302)" style="fill:#A3A296;stroke:#000000;stroke-width:3;stroke-miterlimit:9.9998;" width="100.295" height="16.9977"/>
	<circle style="fill:#A3A296;stroke:#000000;stroke-width:3;stroke-miterlimit:10;" cx="521.9919" cy="447.4173" r="37.7256"/>
</g>
<g>
	
		<rect x="636.3384" y="414.4409" style="fill:#A3A296;stroke:#000000;stroke-width:3;stroke-miterlimit:10;" width="14.3034" height="84.3891"/>
	
		<rect x="601.2988" y="449.4758" style="fill:#A3A296;stroke:#000000;stroke-width:3;stroke-miterlimit:10;" width="84.3891" height="14.3034"/>
	
		<rect x="636.3444" y="414.4321" transform="matrix(0.7071 -0.7071 0.7071 0.7071 -134.4076 588.763)" style="fill:#A3A296;stroke:#000000;stroke-width:3;stroke-miterlimit:9.9998;" width="14.3032" height="84.3875"/>
	
		<rect x="601.2961" y="449.4729" transform="matrix(0.7071 -0.7071 0.7071 0.7071 -134.4085 588.7582)" style="fill:#A3A296;stroke:#000000;stroke-width:3;stroke-miterlimit:9.9998;" width="84.3875" height="14.3032"/>
	<circle style="fill:#A3A296;stroke:#000000;stroke-width:3;stroke-miterlimit:10;" cx="643.4952" cy="456.6407" r="31.7413"/>
</g>
</svg>
